<svg width="800" height="600" viewBox="0 0 800 600" fill="none" xmlns="http://www.w3.org/2000/svg">
<g clip-path="url(#clip0)">
<rect width="800" height="600" rx="50" fill="#BFDBFE"/>
<rect x="-102" y="112" width="481" height="434" fill="white"/>
<path d="M146.013 207.062C114.029 134.877 186.042 130.491 197.222 160.651C219.077 198.797 209.82 215.331 194.808 220.385C198.514 234.919 208.311 267.767 198.681 279.455C186.644 294.065 178.641 301.033 170.695 281.826C164.337 266.46 159.121 234.608 157.307 220.602C152.601 221.951 143.754 221.133 146.013 207.062Z" fill="#FFFAE2"/>
<path d="M176.078 222.132C181.889 222.747 188.736 222.43 194.808 220.385M197.222 160.651C186.042 130.491 114.029 134.877 146.013 207.062M197.222 160.651C219.077 198.797 209.82 215.331 194.808 220.385M197.222 160.651C197.222 160.651 156.137 184.117 177.647 170.267C199.157 156.417 155.061 178.345 155.061 178.345L159.578 202.576C154.131 199.445 148.285 202.191 146.013 207.062M146.013 207.062C143.754 221.133 152.601 221.951 157.307 220.602C159.121 234.608 164.337 266.46 170.695 281.826C178.641 301.033 186.644 294.065 198.681 279.455C208.311 267.767 198.514 234.919 194.808 220.385" stroke="#232540" stroke-width="4" stroke-linecap="round" stroke-linejoin="round"/>
<path d="M145.65 207.577C112.9 140.261 182.541 124.88 197.976 160.651L155.438 177.96L160.332 204.116C151.297 199.115 145.959 205.653 145.65 207.577Z" fill="#232540"/>
<rect x="-4.5" y="4.5" width="433" height="454" rx="23.5" transform="matrix(-1 0 0 1 370 58)" stroke="white" stroke-width="9"/>
<path d="M101 541L119.814 459H212L188.295 541H101Z" fill="#232540"/>
<path d="M268 541L251.76 453H180V494.393L196 526L211.725 541H268Z" fill="#232540"/>
<path d="M194 514L199.5 485" stroke="#2563EB" stroke-width="4" stroke-linecap="round" stroke-linejoin="round"/>
<path d="M360.101 272.027C366.403 263.754 380.289 246.485 383.675 236.376C383.675 236.376 394.326 213.036 391.826 209.91C389.373 206.845 383.178 221.656 378.53 228.032C384.36 219.982 389.96 198.716 387.395 197.595C383.031 195.687 373.34 218.363 368.773 226.241C373.389 218.078 384.448 194.562 380.291 189.026C378.428 186.545 365.919 209.755 361.682 220.532C364.203 213.875 368 197.217 368 193.77C368 182.5 352.951 212.361 349.046 224.762L335.983 266.837L360.101 272.027Z" fill="#FFFAE2"/>
<path d="M360.101 272.027C366.403 263.754 380.289 246.485 383.675 236.376C383.675 236.376 394.326 213.036 391.826 209.91C389.325 206.785 382.935 222.24 378.26 228.395C384.185 220.643 390 198.733 387.395 197.595C383.031 195.687 373.34 218.363 368.773 226.241C373.389 218.078 384.448 194.562 380.291 189.026C378.401 186.509 365.548 210.445 361.5 221C364.016 214.694 368 197.301 368 193.77C368 182.5 352.951 212.361 349.046 224.762L335.983 266.837L360.101 272.027Z" stroke="#232540" stroke-width="4" stroke-linecap="round" stroke-linejoin="round"/>
<path d="M336.959 234.944C336.323 242.165 331.786 256.107 328.676 262.189L342.143 256.048L355.611 249.908C359.981 245.332 351.675 237.577 348.186 233.782C345.908 217.867 346.066 210.255 342.292 209.812C336.544 209.136 337.877 224.53 336.959 234.944Z" fill="#FFFAE2"/>
<path d="M328.676 262.188C331.787 256.106 336.324 242.164 336.96 234.944C337.877 224.529 336.545 209.136 342.293 209.811C346.067 210.254 345.909 217.867 348.187 233.781C352.508 233.801 355.971 244.397 351.601 248.973" stroke="#232540" stroke-width="4" stroke-linecap="round" stroke-linejoin="round"/>
<path d="M289.822 320.299C261.305 238.907 212.69 231.713 191.948 238.291H162.948C105.552 245.69 34.2615 348.046 41.5114 382.576C47.3113 410.2 94.617 419.445 115.158 420.678L110.386 467.051L275.926 475.683L261.426 360.995C264.85 370.655 277.618 388.495 301.301 382.576C324.984 376.657 355.719 307.4 366.996 271.431L332.717 238.291L289.822 320.299Z" fill="#2563EB"/>
<path d="M152.202 230.689C152.202 230.689 157.537 253.121 160.796 257.286L200.371 253.578L202.718 228.305L152.202 230.689Z" fill="#2563EB"/>
<path d="M104.995 359.518C104.995 345.285 123.817 327.206 123.817 327.206L118.546 372.211C110.654 368.641 104.995 363.827 104.995 359.518Z" fill="#FFFAE2"/>
<path d="M161.837 383.366C161.837 383.366 136.72 380.432 118.546 372.211M118.546 372.211C110.654 368.641 104.995 363.827 104.995 359.518C104.995 345.285 123.817 327.206 123.817 327.206L118.546 372.211Z" stroke="#232540" stroke-width="4" stroke-linecap="round" stroke-linejoin="round"/>
<path d="M259.335 353.748C259.335 353.748 245.03 297.588 228.843 286.433" stroke="#232540" stroke-width="4" stroke-linecap="round" stroke-linejoin="round"/>
<path d="M189.335 188.244C215.974 182.594 220.527 182.799 191.197 197.069L189.335 188.244Z" fill="#FFFAE2"/>
<path d="M192.655 186.244C213.844 185.721 218.836 184.532 196.09 195.854" stroke="#232540" stroke-width="4" stroke-linecap="round" stroke-linejoin="round"/>
<path d="M196.114 196.144L198.865 203.841C196.842 206.435 191.472 210.029 186.167 203.65" stroke="#232540" stroke-width="4" stroke-linecap="round" stroke-linejoin="round"/>
<ellipse rx="2.01856" ry="4.79297" transform="matrix(0.911399 -0.413966 0.397763 0.916426 197.7 179.196)" fill="#232540"/>
<ellipse rx="2.01856" ry="4.79297" transform="matrix(0.911399 -0.413966 0.397763 0.916426 180.687 185.961)" fill="#232540"/>
<path d="M141.318 392.58C111.491 406.462 163.061 408.884 175.857 410.049C186.715 411.037 249.316 398.316 248.82 395.519C248.008 390.938 224.138 396.629 220.243 394.593C229.081 392.911 255.712 386.738 256.036 382.955C256.36 379.171 228.023 386.494 220.865 385.919C234.42 381.342 260.643 372.659 256.873 368.265C255.012 366.096 226.617 376.018 212.23 378.431C224.943 372.224 253.593 366.984 249.732 363.208C247.134 360.666 214.159 366.948 199.723 371.855C205.551 366.962 208.263 359.261 209.491 354.019C209.922 352.176 207.775 351.091 206.416 352.401C196.715 361.751 170.696 384.668 141.318 392.58Z" fill="#FFFAE2" stroke="#232540" stroke-width="4" stroke-linecap="round" stroke-linejoin="round"/>
<path d="M190.07 438.372L133.604 426.968V370.288H180.282L190.07 438.372Z" fill="#2563EB"/>
<path d="M125.699 421.448C125.699 421.448 147.532 425.294 175.765 421.448" stroke="#232540" stroke-width="4" stroke-linecap="round" stroke-linejoin="round"/>
<path d="M-88.6798 305H143.707L172.648 452.063H-58.0116L-88.6798 305Z" fill="white"/>
<path d="M-105.608 305H127.72L156.778 452.063H-74.8155L-105.608 305Z" fill="#BFDBFE"/>
<path d="M20 452H63V528H29.3629L20 452Z" fill="#BFDBFE"/>
<rect x="84" y="512" width="128" height="11" fill="#BFDBFE"/>
<rect x="231" y="503" width="39" height="20" fill="#BFDBFE"/>
<rect x="231" y="503" width="29" height="20" fill="#BFDBFE"/>
<rect x="-305.75" y="539.75" width="12.5" height="615.5" transform="rotate(-90 -305.75 539.75)" fill="#BFDBFE" stroke="#BFDBFE" stroke-width="12.5"/>
<rect x="-4.5" y="4.5" width="431" height="685" rx="23.5" transform="matrix(-1 0 0 1 856 186)" stroke="white" stroke-width="9"/>
<path d="M650.915 322.636C618.198 308.178 612.303 307.091 646.249 332.536L650.915 322.636Z" fill="#FFFAE2"/>
<path d="M647.171 319.301C620.123 312.499 614.025 309.635 640.285 329.671" stroke="#232540" stroke-width="4" stroke-linecap="round" stroke-linejoin="round"/>
<ellipse rx="2.63185" ry="5.86122" transform="matrix(-0.814841 -0.579684 -0.610703 0.791859 642.518 309.489)" fill="#232540"/>
<ellipse rx="2.63185" ry="5.86122" transform="matrix(-0.814841 -0.579684 -0.610703 0.79186 662.598 322.459)" fill="#232540"/>
<path d="M644.142 302.381C630.06 318.629 609.591 352.219 645.987 361.752L645.987 409.413L692.566 409.413L686.387 377.577L683.094 360.245L691.802 356.996C706.204 351.941 721.37 324.281 693.969 299.791C677.721 287.669 659.306 287.67 644.142 302.381Z" fill="#FFFAE2"/>
<path d="M644.142 302.381L655.515 308.716L645.987 324.388C652.108 318.937 660.285 322.344 661.648 324.388C669.553 336.246 657.717 346.414 648.329 347.136L683.094 360.245M644.142 302.381C630.06 318.629 609.591 352.219 645.987 361.752M644.142 302.381C659.306 287.67 677.721 287.669 693.969 299.791C721.37 324.281 706.204 351.941 691.802 356.996L683.094 360.245M645.987 361.752C651.042 362.835 640.788 367.818 645.987 361.752ZM645.987 361.752C642.306 364.64 654.484 365.218 645.987 361.752ZM645.987 361.752L645.987 409.413L692.566 409.413L686.387 377.577L683.094 360.245" stroke="#232540" stroke-width="4" stroke-linecap="round" stroke-linejoin="round"/>
<path d="M660.285 323.42C671.187 329.839 659.452 346.833 650.064 347.556L683.094 360.248L691.802 356.999C706.204 351.944 721.37 324.284 693.969 299.794C677.721 287.672 659.306 287.673 644.142 302.384L654.834 309.42L647.675 320.981C647.675 320.981 656.92 321.439 660.285 323.42Z" fill="#232540"/>
<path d="M837 243.5H429.5V660C429.5 672.979 440.021 683.5 453 683.5H837C849.979 683.5 860.5 672.979 860.5 660V267C860.5 254.021 849.979 243.5 837 243.5Z" stroke="white" stroke-width="9"/>
<path d="M400.137 342.925C398.305 345.643 423.673 380.376 434.367 394.5L442.092 390.962L459.322 382.809C459.207 379.108 458.701 383.894 457.305 379C455.559 372.883 458.379 340.67 454.344 337.95C451.116 335.775 447.751 350.636 446.472 358.339C441.799 343.99 431.858 315.88 429.489 318.236C427.119 320.592 431.753 340.514 434.367 350.181C429.96 339.305 420.15 317.872 416.166 319.14C412.573 320.284 419.805 338.1 425.045 349.452C420.431 340.013 412.381 326.091 408.502 326.091C405.749 326.091 413.841 349.195 418.267 358.107C409.582 346.325 402.427 339.527 400.137 342.925Z" fill="#FFFAE2"/>
<path d="M434.367 394.5C423.673 380.376 398.305 345.643 400.137 342.925C402.427 339.527 409.582 346.325 418.267 358.107C413.841 349.195 405.749 326.091 408.502 326.091C412.89 326.091 422.618 343.911 426.667 352.898C421.507 342.174 412.182 320.408 416.166 319.14C420.15 317.872 429.96 339.305 434.367 350.181C431.753 340.514 427.119 320.592 429.489 318.236C431.858 315.88 441.799 343.99 446.472 358.339C447.751 350.636 451.116 335.775 454.344 337.95C458.379 340.67 455.559 372.883 457.305 379C458.701 383.894 459.207 379.108 459.322 382.809L442.092 390.962L434.367 394.5Z" stroke="#232540" stroke-width="4" stroke-linecap="round" stroke-linejoin="round"/>
<path d="M554.668 977.981C567.633 719.644 597.884 618.436 611.389 600.124L704.574 586.724L619.492 986.021L554.668 977.981Z" fill="#232540"/>
<path d="M710.976 981.932L684.133 704.717L684.133 577.492C699.344 558.743 732.45 535.709 743.188 593.563C753.925 651.416 767.346 876.581 772.715 981.932L710.976 981.932Z" fill="#232540"/>
<path d="M637.799 376.174L646.657 391.846L688.904 387.758L695.036 373.448L637.799 376.174Z" fill="#60A5FA" stroke="#60A5FA" stroke-width="4"/>
<path d="M821.305 621.463C785.909 400.566 703.765 368.803 667.118 380.534C597.399 380.534 531.701 428.36 507.568 452.273L461.982 367L425.305 392.372C429.811 411.466 480.753 501 500.864 509.121C516.953 515.618 566.561 484.758 589.354 468.515L589.354 614.697L754.267 614.697L747.563 547.02L782.423 635L821.305 621.463Z" fill="#60A5FA"/>
<mask id="mask0" mask-type="alpha" maskUnits="userSpaceOnUse" x="425" y="367" width="397" height="268">
<path d="M821.305 621.463C785.909 400.566 703.765 368.803 667.118 380.534C597.399 380.534 531.701 428.36 507.568 452.273L461.982 367L425.305 392.372C429.811 411.466 480.753 501 500.864 509.121C516.953 515.618 566.561 484.758 589.354 468.515L589.354 614.697L754.267 614.697L747.563 547.02L782.423 635L821.305 621.463Z" fill="#51B6FF"/>
</mask>
<g mask="url(#mask0)">
<path d="M425.78 550C446.849 509.618 526.805 388 541.305 433C555.805 468 570.703 491.594 587.261 494.814C613.073 499.833 630.769 477.341 645.981 460.017C668.012 434.926 703.523 371.182 746.431 391.374C783.617 408.873 830.442 444.576 861.288 398.306" stroke="#FFFAE2" stroke-width="4" stroke-linecap="round" stroke-linejoin="round"/>
<path d="M469.82 581.807C490.069 556.198 505.731 538.691 538.327 530.427C559.54 525.049 582.997 520.64 604.931 520.64C640.486 520.64 666.525 529.294 694.371 499.707C709.754 483.363 711.83 450.907 729.253 436.223C745.219 422.765 768.401 430.416 787.888 425.22" stroke="#FFFAE2" stroke-width="4" stroke-linecap="round" stroke-linejoin="round"/>
<path d="M579.921 620.954C587.597 608.814 594.859 593.287 607.65 585.613C628.502 573.101 652.42 564.751 676.156 559.923C691.461 556.81 707.385 557.415 722.371 554.35C741.94 550.347 737.471 537.068 745.806 519.908C749.43 512.445 789.97 505.418 818.136 497.987C834.55 493.656 848.492 496.645 836.675 508.831C804.913 541.586 729.499 599.776 766.037 620.954" stroke="#FFFAE2" stroke-width="4" stroke-linecap="round" stroke-linejoin="round"/>
<path d="M429.458 468.24C437.941 432.614 477.629 419.606 509.927 413.326C519.818 411.403 529.6 412.542 539.559 411.831C550.09 411.079 554.713 401.706 561.579 394.84" stroke="#FFFAE2" stroke-width="4" stroke-linecap="round" stroke-linejoin="round"/>
</g>
<path d="M746.819 539.027C745.911 499.279 728.013 411.47 701.847 386.395" stroke="#232540" stroke-width="4" stroke-linecap="round" stroke-linejoin="round"/>
<path d="M592.825 467.481C598.957 464.074 605.771 459.304 611.223 453.853" stroke="#232540" stroke-width="4" stroke-linecap="round" stroke-linejoin="round"/>
</g>
<defs>
<clipPath id="clip0">
<rect width="800" height="600" rx="50" fill="white"/>
</clipPath>
</defs>
</svg>
